<svg width="52" height="54" viewBox="0 0 52 54" fill="none" xmlns="http://www.w3.org/2000/svg">
<path d="M38.6155 28.5346C38.3754 28.5346 38.137 28.5421 37.9001 28.5554C35.0502 24.3185 31.0343 21.4332 26.4493 20.238C28.6057 19.1483 30.33 17.3685 31.3442 15.1856C32.3583 13.0027 32.6032 10.5439 32.0393 8.20575C31.4754 5.86757 30.1356 3.78632 28.236 2.29761C26.3364 0.808909 23.9877 -0.000469741 21.5686 2.04531e-07C19.1495 0.00047015 16.8011 0.810761 14.9021 2.3002C13.0031 3.78965 11.6641 5.87142 11.1012 8.20981C10.5382 10.5482 10.784 13.0069 11.799 15.1894C12.814 17.3719 14.539 19.1511 16.6959 20.2399C12.9774 21.2095 9.61387 23.2947 6.93895 26.3446C3.06889 30.7572 0.9375 36.9182 0.9375 43.6928C0.937501 43.853 0.980916 44.0102 1.06318 44.148C1.14544 44.2857 1.26352 44.3989 1.405 44.4756C1.8162 44.6985 11.5886 49.9344 21.5707 49.9344C24.0966 49.9238 26.615 49.6578 29.0868 49.1407C30.4577 50.7294 32.2085 51.9499 34.1782 52.6899C36.1479 53.43 38.2732 53.6658 40.3586 53.3757C42.444 53.0856 44.4225 52.2789 46.1121 51.0298C47.8017 49.7807 49.1481 48.1293 50.0275 46.2276C50.9069 44.3259 51.291 42.2349 51.1445 40.147C50.998 38.0591 50.3256 36.0414 49.1891 34.2794C48.0527 32.5175 46.4886 31.0679 44.6409 30.064C42.7932 29.0601 40.7212 28.5342 38.6155 28.5346ZM12.5997 10.7015C12.5997 8.93793 13.1259 7.214 14.1116 5.74767C15.0974 4.28135 16.4984 3.13849 18.1377 2.46361C19.7769 1.78874 21.5806 1.61216 23.3208 1.95621C25.061 2.30025 26.6595 3.14948 27.9141 4.39648C29.1687 5.64349 30.0231 7.23227 30.3693 8.96192C30.7154 10.6916 30.5378 12.4844 29.8588 14.1137C29.1798 15.743 28.03 17.1356 26.5547 18.1153C25.0794 19.0951 23.345 19.618 21.5707 19.618C19.1923 19.6154 16.912 18.6751 15.2303 17.0035C13.5485 15.3319 12.6024 13.0655 12.5997 10.7015ZM21.5707 48.1511C13.2515 48.1511 4.79579 44.1851 2.73651 43.1529C2.8454 37.0237 4.80813 31.488 8.29133 27.5165C11.75 23.5731 16.466 21.4014 21.5707 21.4014C27.2572 21.4014 32.4143 24.0919 35.9037 28.8285C33.9484 29.2575 32.1246 30.1452 30.5848 31.4175C29.0449 32.6898 27.8336 34.3097 27.052 36.1421C26.2704 37.9745 25.9411 39.9661 26.0917 41.9508C26.2423 43.9354 26.8684 45.8554 27.9176 47.5506C25.8248 47.9423 23.7003 48.1433 21.5707 48.1511ZM38.6155 51.7177C36.4864 51.7177 34.405 51.0902 32.6347 49.9145C30.8644 48.7388 29.4846 47.0677 28.6698 45.1125C27.855 43.1574 27.6418 41.006 28.0572 38.9304C28.4726 36.8548 29.4979 34.9483 31.0034 33.4519C32.5089 31.9555 34.4271 30.9364 36.5153 30.5235C38.6036 30.1107 40.7681 30.3226 42.7351 31.1324C44.7022 31.9423 46.3835 33.3137 47.5664 35.0733C48.7493 36.8329 49.3806 38.9016 49.3806 41.0178C49.3774 43.8547 48.2422 46.5744 46.2241 48.5803C44.2059 50.5862 41.4696 51.7146 38.6155 51.7177Z" fill="black"/>
<path d="M46.5816 36.7095C46.3836 36.5784 46.1413 36.5307 45.908 36.5771C45.6747 36.6234 45.4695 36.76 45.3375 36.9568L44.7858 37.7793C44.3174 36.4428 43.4596 35.2751 42.3216 34.4245C41.1835 33.574 39.8166 33.0792 38.3948 33.003C36.973 32.9268 35.5605 33.2728 34.3371 33.9967C33.1137 34.7207 32.1345 35.7901 31.5243 37.0688C31.4222 37.2824 31.4097 37.5276 31.4894 37.7504C31.5692 37.9732 31.7348 38.1554 31.9497 38.2569C32.1647 38.3584 32.4114 38.3708 32.6355 38.2915C32.8597 38.2122 33.043 38.0477 33.1451 37.834C33.5972 36.8862 34.3197 36.0913 35.2227 35.5484C36.1257 35.0054 37.1693 34.7382 38.2239 34.7802C39.2784 34.8221 40.2973 35.1712 41.1538 35.7841C42.0103 36.397 42.6666 37.2467 43.0411 38.2274L42.0961 37.6012C41.9981 37.5349 41.8879 37.4885 41.7717 37.4648C41.6556 37.441 41.5359 37.4404 41.4195 37.463C41.3032 37.4855 41.1925 37.5307 41.0938 37.5961C40.9951 37.6614 40.9105 37.7455 40.8447 37.8436C40.7789 37.9416 40.7334 38.0516 40.7106 38.1673C40.6879 38.2829 40.6885 38.4019 40.7123 38.5173C40.7361 38.6328 40.7827 38.7424 40.8494 38.8398C40.9161 38.9372 41.0016 39.0205 41.1009 39.0849L43.7922 40.8682C43.9901 40.9994 44.2324 41.0471 44.4657 41.0007C44.699 40.9544 44.9042 40.8178 45.0362 40.621L46.8304 37.946C46.8958 37.8486 46.9412 37.7393 46.964 37.6245C46.9869 37.5096 46.9868 37.3914 46.9636 37.2766C46.9405 37.1618 46.8949 37.0526 46.8294 36.9553C46.7638 36.858 46.6796 36.7745 46.5816 36.7095Z" fill="black"/>
<path d="M45.2775 43.7788C45.171 43.7285 45.0557 43.6996 44.938 43.6936C44.8204 43.6877 44.7027 43.7048 44.5917 43.7441C44.4807 43.7833 44.3785 43.8439 44.2911 43.9224C44.2037 44.0009 44.1326 44.0958 44.0821 44.2016C43.63 45.1494 42.9075 45.9443 42.0045 46.4872C41.1015 47.0302 40.0579 47.2974 39.0033 47.2554C37.9488 47.2135 36.9299 46.8644 36.0734 46.2515C35.2169 45.6386 34.5606 44.7889 34.1861 43.8082L35.1311 44.4344C35.2291 44.5007 35.3393 44.5471 35.4554 44.5708C35.5716 44.5946 35.6913 44.5952 35.8076 44.5726C35.924 44.5501 36.0347 44.5049 36.1334 44.4395C36.2321 44.3742 36.3167 44.2901 36.3825 44.192C36.4483 44.094 36.4938 43.984 36.5165 43.8683C36.5393 43.7527 36.5387 43.6337 36.5149 43.5183C36.4911 43.4028 36.4444 43.2932 36.3778 43.1958C36.3111 43.0984 36.2256 43.0151 36.1263 42.9507L33.435 41.1674C33.2371 41.0362 32.9948 40.9885 32.7615 41.0349C32.5282 41.0812 32.323 41.2178 32.191 41.4146L30.3968 44.0896C30.3314 44.187 30.286 44.2962 30.2632 44.4111C30.2403 44.526 30.2404 44.6442 30.2635 44.759C30.2866 44.8739 30.3322 44.983 30.3978 45.0803C30.4633 45.1776 30.5475 45.2612 30.6456 45.3261C30.7436 45.3911 30.8535 45.4362 30.9691 45.4589C31.0847 45.4817 31.2036 45.4815 31.3191 45.4586C31.4347 45.4356 31.5445 45.3903 31.6424 45.3251C31.7403 45.26 31.8243 45.1763 31.8897 45.0788L32.4414 44.2563C32.9098 45.5928 33.7676 46.7605 34.9056 47.6111C36.0437 48.4616 37.4106 48.9564 38.8324 49.0326C40.2542 49.1088 41.6666 48.7628 42.8901 48.0389C44.1135 47.3149 45.0927 46.2455 45.7029 44.9668C45.7535 44.8611 45.7826 44.7464 45.7885 44.6295C45.7945 44.5125 45.7773 44.3956 45.7377 44.2852C45.6982 44.1749 45.6373 44.0734 45.5583 43.9865C45.4793 43.8996 45.3839 43.829 45.2775 43.7788Z" fill="black"/>
</svg>
