<svg width="65" height="45" viewBox="0 0 65 45" fill="none" xmlns="http://www.w3.org/2000/svg">
<path d="M64.2913 1.14758C63.8721 0.621915 63.0755 0 61.6501 0H3.32601L3.1094 0.0740364C3.03254 0.103651 2.31983 0.362783 1.60711 0.962487C0.552007 1.84353 0 2.99852 0 4.31639V40.654L0.0698742 40.8761C0.104811 40.9798 0.405271 41.8978 1.04113 42.8307C2.00539 44.2522 3.25614 45 4.64664 45H61.8667L62.0763 44.926C62.2021 44.8815 62.8798 44.6224 63.5506 43.9635C64.2005 43.3268 64.9761 42.2014 64.9761 40.4097V3.70188C65.032 3.27246 65.0529 2.09526 64.2913 1.14758ZM3.82911 2.90227H61.657C62.0274 2.90227 62.1741 2.98371 62.2021 3.02073C62.251 3.07996 62.2719 3.26505 62.2649 3.39092L62.251 3.46496V8.27739H2.74606V4.31639C2.74606 3.5464 3.47974 3.07996 3.82911 2.90227ZM61.7619 41.7646C61.6151 41.92 61.4614 42.0237 61.3566 42.0903H4.65363C3.64045 42.0903 2.96267 40.6614 2.74606 40.1283V19.7606H62.244V40.4171C62.244 40.9798 62.0903 41.424 61.7619 41.7646Z" fill="black"/>
<path d="M58.7118 30.7109H55.3858H55.1203H51.8012C51.8012 30.7109 51.375 30.8664 51.375 31.2736C51.375 31.6808 51.375 38.359 51.375 38.359C51.375 38.359 51.5706 38.9735 52.0178 38.9735C52.1716 38.9735 53.4712 38.9735 55.1412 38.9735C55.2181 38.9735 55.2949 38.9735 55.3718 38.9735C57.0418 38.9735 58.3415 38.9735 58.4952 38.9735C58.9424 38.9735 59.138 38.359 59.138 38.359C59.138 38.359 59.138 31.6808 59.138 31.2736C59.138 30.859 58.7118 30.7109 58.7118 30.7109Z" fill="black"/>
</svg>
