<svg width="55" height="54" viewBox="0 0 55 54" fill="none" xmlns="http://www.w3.org/2000/svg">
<path d="M54.4495 47.9436L42.7967 27.4928C42.1972 26.4382 41.2403 25.7551 40.1069 25.5442V12.0582C40.1069 11.7808 39.9622 11.5263 39.7246 11.3888L33.3408 7.65445C33.1508 7.54441 32.9223 7.52149 32.7165 7.59025L30.0651 8.49578C29.762 8.59894 29.5539 8.8832 29.5448 9.20641L29.4226 13.3144L23.4958 14.2405L27.8031 11.7189C28.0565 11.5699 28.2035 11.2902 28.1832 10.9967L27.9773 7.93404L29.7667 6.90703C30.0042 6.76948 30.1535 6.51503 30.1535 6.23766C30.1558 5.96028 30.0088 5.70352 29.7712 5.56371L20.4373 0.103161C20.202 -0.034387 19.9102 -0.034387 19.6727 0.103161L0.382321 11.3867C0.147048 11.5243 0 11.781 0 12.0561V22.7616C0 23.0298 0.137996 23.2796 0.364223 23.4195C0.590444 23.5593 0.870965 23.5731 1.10853 23.4516L2.68307 22.6492L1.76914 24.8385C1.68318 25.0425 1.68996 25.2741 1.78498 25.4758C1.87999 25.6752 2.05645 25.8265 2.26684 25.8861L4.10153 26.4088L2.89803 27.5848C2.65145 27.8255 2.59263 28.2038 2.75777 28.5086L4.16941 31.1564L1.14251 29.4325C0.907239 29.2972 0.617672 29.2995 0.382399 29.4394C0.14939 29.5769 0.00460636 29.8337 0.00460636 30.1064V34.6248C0.00460636 34.9022 0.14939 35.1566 0.386927 35.2942L19.6773 46.5795C19.7949 46.6482 19.9284 46.6826 20.0596 46.6826C20.1908 46.6826 20.322 46.6482 20.4419 46.5795L27.3076 42.5631L24.2445 47.9389C23.5138 49.2226 23.5138 50.6943 24.2445 51.9804C24.9752 53.2641 26.2352 54 27.6966 54H50.9998C52.4635 54 53.7213 53.2641 54.452 51.9804C55.1827 50.6966 55.1827 49.2249 54.452 47.9389L54.4495 47.9436ZM30.2822 14.7426C30.6464 14.6853 30.9179 14.3736 30.9292 13.9999L31.0559 9.78645L32.877 9.1652L37.8177 12.0559L20.0545 22.4475L14.7564 19.3481L19.8396 16.3749L30.2822 14.7426ZM26.8052 6.82709C26.5495 6.97381 26.4002 7.25577 26.4206 7.5538L26.6264 10.6211L19.2019 14.9652L13.2299 18.4588L9.11714 16.0518L26.8803 5.66024L27.8508 6.22876L26.8057 6.82935L26.8052 6.82709ZM8.35222 17.3929L12.465 19.8V25.2972L8.35222 22.8901V17.3929ZM20.0548 1.66449L25.3529 4.76381L7.58973 15.1553L2.29158 12.056L20.0548 1.66449ZM1.52944 31.4341L5.72138 33.8228C6.01774 33.9924 6.38872 33.942 6.6308 33.699C6.87286 33.4583 6.92941 33.0823 6.76654 32.7797L4.37309 28.2935L6.11727 26.588C6.31408 26.3954 6.39326 26.1111 6.32766 25.843C6.26205 25.5747 6.05619 25.3615 5.79377 25.2859L3.51343 24.6348L4.90016 21.3154C5.02458 21.0174 4.95219 20.6712 4.71918 20.4489C4.48617 20.2265 4.14005 20.1761 3.855 20.3228L1.53169 21.508V13.3999L6.82984 16.4992V23.3373C6.82984 23.6147 6.97462 23.8692 7.21216 24.0067L12.8519 27.3055C12.9696 27.3743 13.103 27.4086 13.2343 27.4086C13.3655 27.4086 13.4967 27.3743 13.6166 27.3055C13.8519 27.1679 13.9989 26.9112 13.9989 26.6361V20.6918L19.297 23.7911V44.5742L1.52922 34.1827L1.52944 31.4341ZM20.8198 44.5745V23.7914L38.583 13.3999V25.545C37.4519 25.7559 36.4949 26.4413 35.8932 27.4935L28.8307 39.8886L20.8178 44.5766L20.8198 44.5745ZM53.1268 51.2113C52.6698 52.0136 51.9119 52.456 50.9958 52.456H27.6926C26.7764 52.456 26.0208 52.0136 25.5615 51.2113C25.1046 50.4089 25.1046 49.5218 25.5615 48.7194L37.2143 28.2685C37.6712 27.4639 38.4291 27.0214 39.3453 27.0214C40.2615 27.0214 41.0171 27.4639 41.4764 28.2685L53.1291 48.7194C53.5861 49.5218 53.5861 50.4089 53.1291 51.2113H53.1268ZM40.4513 28.8672C40.207 28.4362 39.8337 28.2184 39.345 28.2184C38.8541 28.2184 38.4831 28.4362 38.2388 28.8672L26.586 49.3181C26.3417 49.749 26.3417 50.1846 26.586 50.6133C26.8303 51.0442 27.2036 51.262 27.6923 51.262H50.9955C51.4841 51.262 51.8574 51.0442 52.1017 50.6133C52.3461 50.1846 52.3461 49.7467 52.1017 49.3181L40.449 28.8672H40.4513ZM28.1244 49.7124L39.3451 30.018L50.5659 49.7124H28.1244ZM37.7027 34.7821C37.3905 35.1191 37.239 35.5409 37.2661 36.004L37.6914 43.0827C37.7389 43.8804 38.3949 44.504 39.1822 44.504H39.508C40.2953 44.504 40.9513 43.8804 40.9988 43.0827L41.4241 36.004C41.4512 35.5432 41.3019 35.1191 40.9875 34.7821C40.6753 34.4451 40.2681 34.2663 39.8111 34.2663H38.8791C38.4221 34.2663 38.0149 34.4451 37.7027 34.7821ZM39.8767 35.8435C39.8994 35.8665 39.9016 35.8756 39.8994 35.91L39.4763 42.957H39.2139L38.7909 35.91C38.7886 35.8756 38.7931 35.8687 38.8135 35.8435C38.8361 35.8206 38.8451 35.816 38.8768 35.816H39.8089C39.8428 35.816 39.8496 35.8206 39.8722 35.8435H39.8767ZM39.3474 45.1646C38.3135 45.1646 37.472 46.0174 37.472 47.065C37.472 48.1127 38.3135 48.9655 39.3474 48.9655C40.3812 48.9655 41.2228 48.1127 41.2228 47.065C41.2228 46.0174 40.3812 45.1646 39.3474 45.1646ZM39.3474 47.418C39.1551 47.418 38.999 47.2599 38.999 47.065C38.999 46.8702 39.1551 46.712 39.3474 46.712C39.5397 46.712 39.6958 46.8702 39.6958 47.065C39.6958 47.2599 39.5397 47.418 39.3474 47.418Z" fill="black"/>
</svg>
