<svg width="54" height="54" viewBox="0 0 54 54" fill="none" xmlns="http://www.w3.org/2000/svg">
<path d="M53.6042 28.1822L49.1615 20.7104C49.013 20.5008 48.8135 20.3376 48.5628 20.2765L40.0038 18.3994C40.0078 17.8505 39.868 17.303 39.5558 16.8274L29.3341 1.25773C28.8161 0.469592 27.948 0 27.0109 0C26.0729 0 25.2048 0.469592 24.6868 1.25773L14.4642 16.8274C14.1529 17.3017 14.0127 17.8475 14.0157 18.3949L5.43721 20.2765C5.18654 20.3372 4.98706 20.501 4.8385 20.7104L0.395767 28.1822C-0.50032 29.6095 0.196366 31.6706 1.77009 32.2474L4.70605 33.4067V43.3468C4.70605 44.5126 5.40093 45.5405 6.47725 45.9657L26.6616 53.9355C26.8794 54.0215 27.1206 54.0215 27.3384 53.9355L47.5232 45.9657C48.5991 45.5405 49.294 44.5126 49.294 43.3468V33.4067L52.2299 32.2474C53.8036 31.6706 54.5003 29.6095 53.6042 28.1822ZM16.0136 17.8636L26.2362 2.29394C26.4113 2.02757 26.6934 1.87469 27.0109 1.87469C27.3275 1.87469 27.6096 2.02757 27.7847 2.29394L38.0064 17.8636C38.0308 17.9007 38.0359 17.9352 38.054 17.9717L38.023 17.9649C37.978 18.1119 37.9362 18.2601 37.8624 18.3988C37.6529 18.7928 37.3393 19.1014 36.9717 19.3181H17.0488C16.6807 19.1015 16.3672 18.793 16.1576 18.3988C16.083 18.2587 16.0406 18.1091 15.9954 17.9606L15.9682 17.9666C15.9857 17.9318 15.9903 17.899 16.0136 17.8636ZM14.6641 20.1715C15.1871 20.8038 15.9515 21.1928 16.7883 21.1928H37.2326C38.067 21.1928 38.8299 20.8055 39.353 20.1755L45.1646 21.4501L27 28.6221L8.83536 21.4501L14.6641 20.1715ZM2.44681 30.5018C1.92316 30.311 1.68776 29.6223 1.98871 29.1466L6.02759 22.3547L25.6378 30.0979L21.4379 37.1616C21.2038 37.5552 20.7271 37.7186 20.3026 37.5525L2.44681 30.5018ZM26.0711 51.6894L7.15443 44.2201C6.79565 44.0782 6.56388 43.7354 6.56388 43.3468V34.1403L19.6258 39.2981C20.8702 39.7961 22.3273 39.317 23.0308 38.1264L26.0711 33.0132V51.6894ZM47.4361 43.3468C47.4361 43.7354 47.2043 44.0782 46.846 44.2201L27.9289 51.6894V33.0132L30.9692 38.1264C31.6727 39.317 33.1298 39.7961 34.3742 39.2981L47.4361 34.1404V43.3468ZM51.5532 30.5018L33.6974 37.5525C33.2729 37.7186 32.7962 37.5552 32.5621 37.1616L28.3622 30.0979L47.9724 22.3547L52.0113 29.1466C52.3122 29.6223 52.0768 30.311 51.5532 30.5018ZM26.3523 13.2107L25.8334 6.5706C25.7735 5.85706 26.2768 5.23935 26.9964 5.25337C27.7087 5.23907 28.2447 5.853 28.1584 6.5706L27.6577 13.2107C27.6214 13.6675 27.4073 13.8964 27.0136 13.8964C26.6081 13.8964 26.3877 13.6675 26.3523 13.2107ZM26.0929 17.6036C25.7046 17.2507 25.7048 16.0453 26.0929 15.6914C26.4684 15.3006 27.5417 15.3003 27.9171 15.6914C28.3053 16.0505 28.3057 17.2457 27.9171 17.6036C27.542 17.9958 26.4679 17.9961 26.0929 17.6036Z" fill="black"/>
</svg>
