<svg width="60" height="55" viewBox="0 0 60 55" fill="none" xmlns="http://www.w3.org/2000/svg">
<path d="M18.2552 30.0098H9.30993C8.4838 30.0098 7.81217 30.6711 7.81217 31.483V36.3308C7.81217 37.1434 8.48446 37.804 9.30993 37.804H18.2552C19.0814 37.804 19.753 37.1427 19.753 36.3308V31.483C19.753 30.6711 19.0807 30.0098 18.2552 30.0098ZM17.9882 36.0687H9.57635V31.7457H17.9882V36.0687ZM52.0949 27.0712V10.9285C52.0949 10.8281 52.0772 10.7289 52.0425 10.6349L48.3636 0.574339C48.2379 0.229864 47.9053 0 47.5335 0H4.56201C4.18953 0 3.85764 0.229864 3.73196 0.574339L0.0523691 10.6349C0.0176745 10.7289 0 10.8287 0 10.9285V43.284C0 43.7637 0.394733 44.152 0.88242 44.152H30.3348C32.1213 50.4034 37.9683 55 44.8869 55C53.2202 55 60 48.3314 60 40.1348C60.0007 34.5028 56.8002 29.5932 52.0949 27.0712ZM5.18258 1.73589H46.9129L49.9576 10.0599H2.13797L5.18258 1.73589ZM20.6164 11.7965H31.4784V18.4052L26.5217 15.2966C26.2324 15.115 25.8625 15.115 25.5732 15.2966L20.6164 18.4052V11.7965ZM1.76484 42.4161V11.7965H18.8516V19.9879C18.8516 20.3047 19.027 20.5963 19.3098 20.7489C19.5926 20.9015 19.9369 20.89 20.2086 20.72L26.0478 17.0582L31.8869 20.72C32.0316 20.8108 32.1959 20.8558 32.3615 20.8558C32.5075 20.8558 32.6535 20.8204 32.7857 20.7489C33.0685 20.5963 33.2439 20.3047 33.2439 19.9879V11.7965H50.3307V26.267C48.6411 25.6231 46.8056 25.269 44.8876 25.269C36.5543 25.269 29.7745 31.9376 29.7745 40.1342C29.7745 40.91 29.8354 41.6717 29.9525 42.4154L1.76484 42.4161ZM44.8869 53.2641C37.5264 53.2641 31.5387 47.3746 31.5387 40.1348C31.5387 32.8951 37.5271 27.0049 44.8869 27.0049C52.2474 27.0049 58.2352 32.8951 58.2352 40.1348C58.2352 47.3746 52.2474 53.2641 44.8869 53.2641ZM51.9522 32.0232C50.7064 30.975 48.8257 31.1186 47.7594 32.3439L44.8869 35.6399L42.0145 32.3439C41.498 31.7502 40.7772 31.3903 39.9858 31.3298C39.1931 31.2686 38.4252 31.5159 37.8217 32.0232C36.5759 33.0721 36.4293 34.922 37.4963 36.1479L40.9704 40.1342L37.4957 44.1211C36.9792 44.7147 36.7285 45.4706 36.7906 46.2497C36.8522 47.0288 37.2188 47.7377 37.8223 48.2451C38.3656 48.7029 39.0432 48.9476 39.7508 48.9476C39.8287 48.9476 39.9073 48.9443 39.9865 48.9385C40.7786 48.878 41.4986 48.5175 42.0151 47.9244L44.8876 44.6278L47.76 47.9238C48.8257 49.1491 50.7071 49.2933 51.9528 48.2444C53.1986 47.1962 53.3452 45.3457 52.2782 44.1198L48.8041 40.1335L52.2788 36.1466C53.3445 34.922 53.1979 33.0721 51.9522 32.0232ZM50.9382 35.0186L46.9719 39.5695C46.6884 39.8946 46.6884 40.3743 46.9719 40.6988L50.9375 45.2498C51.3709 45.7481 51.3113 46.5002 50.8046 46.9264C50.298 47.3527 49.5334 47.2941 49.0994 46.7957L45.5566 42.7303C45.389 42.5378 45.1442 42.427 44.8869 42.427C44.6296 42.427 44.3848 42.5378 44.2172 42.7303L40.6745 46.7957C40.2411 47.2941 39.4765 47.3527 38.9699 46.9264C38.7244 46.7197 38.5758 46.4319 38.5502 46.1151C38.5254 45.7984 38.6268 45.4912 38.8363 45.2504L42.8026 40.6995C43.0861 40.3743 43.0861 39.8946 42.8026 39.5701L38.837 35.0198C38.4036 34.5215 38.4632 33.7694 38.9699 33.3432C39.197 33.152 39.4765 33.058 39.7547 33.058C40.0964 33.058 40.4355 33.199 40.6751 33.4739L44.2179 37.5393C44.3855 37.7319 44.6303 37.8426 44.8876 37.8426C45.1448 37.8426 45.3897 37.7319 45.5572 37.5393L49.1 33.4739C49.5334 32.9755 50.2986 32.9169 50.8053 33.3425C51.3113 33.7688 51.3709 34.5208 50.9382 35.0186Z" fill="black"/>
</svg>
